<?xml version="1.0" encoding="utf-8"?>
<!-- Generator: Adobe Illustrator 26.3.1, SVG Export Plug-In . SVG Version: 6.00 Build 0)  -->
<svg version="1.1" id="Layer_1" xmlns="http://www.w3.org/2000/svg" xmlns:xlink="http://www.w3.org/1999/xlink" x="0px" y="0px"
	 viewBox="0 0 250 80" style="enable-background:new 0 0 250 80;" xml:space="preserve">
<style type="text/css">
	.st0{fill:#DA627D;}
	.st1{fill:none;stroke:#AA9197;stroke-miterlimit:10;}
</style>
<g>
	<path class="st0" d="M141.3,18.6c0.3,0.1,0.6,0.3,0.8,0.6c0.2,0.2,0.3,0.5,0.2,0.8c0,0.3-0.1,0.6-0.3,0.8c-0.3,0.2-0.6,0.4-0.9,0.5
		h-4.8v15.1c0,0.4-0.1,0.8-0.4,1.1c-0.2,0.2-0.5,0.3-0.9,0.4c-0.3,0-0.6-0.1-0.8-0.3c-0.3-0.3-0.4-0.6-0.5-1V21.2h-4.9
		c-0.4,0-0.7-0.2-1-0.5c-0.2-0.2-0.3-0.5-0.3-0.8c0-0.3,0.2-0.6,0.4-0.8c0.3-0.3,0.7-0.4,1.1-0.4h10.9L141.3,18.6z"/>
	<path class="st0" d="M140.5,29.5c0.2-0.7,0.5-1.3,0.8-1.9c0.3-0.6,0.7-1.2,1.2-1.7c0.5-0.5,1-1,1.6-1.3c0.6-0.4,1.3-0.7,2-0.8
		c1-0.3,2.1-0.2,3.1,0.3c0.9,0.4,1.6,1.1,2.1,2c0.6,0.9,0.9,1.9,1.1,2.9c0.2,1,0.1,2.1-0.1,3.1c-0.3,1.2-0.9,2.4-1.6,3.4
		c-0.8,1-1.8,1.8-3,2.3c-0.8,0.3-1.6,0.4-2.4,0.4c-0.8-0.1-1.5-0.4-2.2-0.8c-0.7-0.5-1.2-1-1.7-1.7c-0.7-1.2-1.1-2.6-1-4
		c0-0.5,0.1-1.1,0.2-1.6L140.5,29.5z M142.9,30.2c-0.1,0.4-0.1,0.8-0.2,1.2c0,0.4,0,0.8,0,1.2c0.1,0.5,0.2,1,0.5,1.5
		c0.3,0.4,0.6,0.8,1,1c0.4,0.2,0.9,0.4,1.4,0.3c0.5,0,1.1-0.2,1.5-0.5c0.7-0.4,1.2-0.9,1.6-1.6c0.4-0.7,0.7-1.4,0.9-2.1
		c0.2-0.7,0.2-1.3,0.1-2c-0.1-0.7-0.3-1.3-0.6-1.9c-0.3-0.5-0.8-0.9-1.3-1.2c-0.7-0.2-1.4-0.2-2,0.1c-0.8,0.3-1.5,0.9-2,1.6
		C143.6,28.6,143.2,29.4,142.9,30.2z"/>
	<path class="st0" d="M165.3,33.5c0.4-0.2,0.8-0.2,1.1-0.1c0.6,0.2,0.9,0.9,0.7,1.5c-0.1,0.4-0.4,0.7-0.7,0.8
		c-0.7,0.4-1.4,0.8-2.2,1.1c-0.8,0.3-1.6,0.6-2.4,0.7c-0.8,0.1-1.6,0.1-2.4,0c-0.8-0.2-1.6-0.5-2.2-0.9c-0.9-0.6-1.6-1.4-2-2.4
		c-0.4-1-0.7-2.1-0.7-3.2c0-1.1,0.2-2.2,0.6-3.2c0.4-1,1.1-1.9,2-2.5c1-0.6,2-1.1,3.1-1.4c1.1-0.3,2.3-0.3,3.4-0.1
		c0.6,0.1,1.1,0.4,1.5,0.8c0.4,0.4,0.8,0.9,1.1,1.4c0.3,0.5,0.4,1.1,0.5,1.7c0,0.6-0.1,1.2-0.4,1.6c-0.4,0.6-0.9,1.1-1.5,1.5
		c-0.7,0.4-1.4,0.7-2.1,1c-0.8,0.3-1.5,0.5-2.3,0.7c-0.8,0.2-1.5,0.4-2,0.5c-0.2,0-0.5,0-0.7,0c0.3,0.7,0.8,1.2,1.4,1.6
		c0.7,0.4,1.5,0.6,2.3,0.5c0.8-0.1,1.5-0.3,2.2-0.6C164,34.2,164.7,33.8,165.3,33.5z M159.3,26.9c-0.7,0.4-1.3,0.9-1.7,1.7
		c-0.4,0.7-0.6,1.5-0.6,2.2c0.1-0.1,0.3-0.2,0.5-0.2l1.1-0.3l1.2-0.3c0.2-0.1,0.6-0.1,1-0.3s0.9-0.3,1.3-0.4
		c0.4-0.1,0.8-0.3,1.2-0.6c0.3-0.2,0.6-0.4,0.8-0.7c0.1-0.5-0.1-1.1-0.5-1.4c-0.4-0.3-0.9-0.4-1.3-0.4c-0.5,0-1.1,0.1-1.6,0.3
		C160.2,26.5,159.7,26.7,159.3,26.9L159.3,26.9z"/>
	<path class="st0" d="M171.9,36.6c-0.3,0.2-0.6,0.3-1,0.3c-0.3,0-0.5-0.1-0.7-0.3c-0.2-0.2-0.3-0.5-0.3-0.8c0-0.4,0.1-0.7,0.3-1
		l0.1-0.1V18.6c0.1-0.3,0.2-0.7,0.5-0.9c0.2-0.2,0.5-0.3,0.7-0.3c0.3,0,0.5,0.1,0.8,0.3c0.3,0.2,0.5,0.5,0.6,0.9v7.4
		c0.8-0.7,1.8-1.3,2.8-1.6c0.5-0.1,1-0.2,1.4-0.3c0.5-0.1,1,0,1.5,0.1c0.5,0.2,1,0.4,1.4,0.7c0.6,0.3,1.1,0.9,1.4,1.5
		c0.3,0.6,0.5,1.3,0.6,2c0.1,0.7,0.2,1.4,0.1,2.2c0,0.7-0.1,1.3-0.2,2c0,0.3-0.1,0.6-0.3,0.9c-0.1,0.3-0.3,0.6-0.5,0.9
		c-0.3,0.6-0.7,1.1-1.2,1.5c-0.5,0.4-1.1,0.8-1.7,1c-0.6,0.2-1.2,0.4-1.9,0.5c-0.6,0.1-1.2,0.1-1.8,0.1c-0.5,0-0.9-0.1-1.4-0.2
		C172.8,37,172.3,36.9,171.9,36.6C171.9,36.6,171.9,36.6,171.9,36.6z M172.8,29.7v4.3l0.3,0.2c0,0,0.1,0.1,0.1,0.1l0.1,0.1
		c1,0.4,2,0.5,3.1,0.2c1-0.3,1.9-0.9,2.6-1.7c0.2-0.4,0.3-0.9,0.5-1.4c0.1-0.4,0.1-0.8,0.1-1.3c0-0.4,0-0.9-0.1-1.3
		c-0.1-0.5-0.2-0.9-0.4-1.4c-0.1-0.1-0.2-0.2-0.3-0.3c-0.1-0.1-0.2-0.2-0.3-0.3c-0.1,0-0.2-0.1-0.3-0.2c-0.1-0.1-0.2-0.1-0.3-0.1
		l-0.3-0.1l-0.3-0.1c-0.9,0.1-1.7,0.5-2.5,1c-0.7,0.6-1.3,1.2-1.8,1.9L172.8,29.7z"/>
	<path class="st0" d="M195.7,33.5c0.4-0.2,0.8-0.2,1.1-0.1c0.3,0.1,0.5,0.3,0.7,0.6c0.1,0.3,0.2,0.6,0.1,0.9
		c-0.1,0.4-0.4,0.7-0.7,0.8c-0.7,0.4-1.4,0.8-2.2,1.1c-0.8,0.3-1.6,0.6-2.4,0.7c-0.8,0.1-1.6,0.1-2.4,0c-0.8-0.1-1.6-0.5-2.3-0.9
		c-0.9-0.6-1.6-1.4-2-2.4c-0.5-1-0.7-2.1-0.7-3.2c0-1.1,0.2-2.2,0.6-3.2c0.4-1,1.1-1.9,2-2.5c0.9-0.6,2-1.1,3.1-1.4
		c1.1-0.3,2.3-0.3,3.4-0.1c0.6,0.1,1.1,0.4,1.5,0.8c0.4,0.4,0.8,0.9,1.1,1.4c0.3,0.5,0.4,1.1,0.4,1.7c0,0.6-0.1,1.2-0.4,1.6
		c-0.4,0.6-0.9,1.1-1.5,1.5c-0.7,0.4-1.4,0.7-2.1,1c-0.8,0.3-1.5,0.5-2.3,0.7c-0.8,0.2-1.4,0.4-2,0.5c-0.2,0-0.5,0-0.7,0
		c0.3,0.7,0.8,1.2,1.4,1.6c0.7,0.4,1.5,0.6,2.3,0.5c0.8-0.1,1.5-0.3,2.2-0.6C194.4,34.2,195.1,33.8,195.7,33.5z M189.7,26.9
		c-0.7,0.4-1.3,0.9-1.7,1.7c-0.4,0.7-0.6,1.5-0.6,2.2c0.1-0.1,0.3-0.2,0.5-0.2l1.1-0.3l1.2-0.3c0.2-0.1,0.6-0.1,1-0.3
		s0.9-0.3,1.3-0.4c0.4-0.1,0.8-0.3,1.2-0.6c0.3-0.2,0.6-0.4,0.8-0.7c0.1-0.5-0.1-1.1-0.5-1.4c-0.4-0.3-0.9-0.4-1.3-0.4
		c-0.5,0-1.1,0.1-1.6,0.3C190.6,26.5,190.1,26.7,189.7,26.9L189.7,26.9z"/>
	<path class="st0" d="M212.2,35.8L212.2,35.8c0.1,0.3,0.2,0.5,0.1,0.8c-0.1,0.2-0.2,0.4-0.4,0.6c-0.2,0.2-0.4,0.3-0.7,0.3
		c-0.3,0-0.6,0-0.9-0.2c-0.2-0.2-0.4-0.4-0.5-0.6c-0.2-0.2-0.3-0.4-0.4-0.7c-0.4,0.4-0.9,0.7-1.3,1c-0.4,0.3-0.9,0.4-1.4,0.5
		c-0.8,0-1.6,0.1-2.5,0c-0.8,0-1.6-0.3-2.3-0.8c-0.6-0.4-1-0.9-1.4-1.5c-0.3-0.6-0.5-1.2-0.6-1.9c-0.1-0.7-0.1-1.4,0-2.1
		c0.1-0.7,0.3-1.4,0.5-2c0.1-0.3,0.2-0.6,0.4-0.8c0.2-0.3,0.3-0.5,0.5-0.8c0.2-0.4,0.5-0.8,0.8-1.2c0.3-0.4,0.6-0.7,1-0.9l0.8-0.6
		c0.3-0.2,0.5-0.4,0.8-0.5c0.3-0.2,0.6-0.3,0.9-0.4c0.4-0.1,0.8-0.3,1.2-0.3c0.4-0.1,0.9-0.1,1.3-0.1c0.4,0,0.8,0.1,1.1,0.2
		c0.3,0,0.6,0,0.9,0.2c0.3,0.2,0.5,0.5,0.6,0.9c0,1.4,0,2.8,0,4.2c0,1.4,0.1,2.8,0.3,4.2c0,0.2,0.1,0.5,0.2,0.7
		c0.1,0.3,0.3,0.5,0.4,0.8s0.3,0.5,0.4,0.7C212.1,35.5,212.2,35.6,212.2,35.8z M208.2,33.6L208.2,33.6c0.1-0.1,0.1-0.1,0.2-0.1
		c-0.3-1.3-0.4-2.6-0.4-3.9c0-1.3,0-2.5,0-3.7c-0.2,0-0.4,0-0.6,0.1c-0.2,0-0.4,0.1-0.7,0.2l-0.6,0.2l-0.4,0.1
		c-0.6,0.3-1.1,0.7-1.6,1.1c-0.4,0.5-0.8,1-1.1,1.5c-0.3,0.6-0.5,1.2-0.6,1.8c-0.1,0.6-0.2,1.3-0.2,1.9c0,0.2,0.1,0.3,0.1,0.5
		c0.1,0.2,0.1,0.3,0.2,0.5s0.2,0.2,0.3,0.3c0.1,0.1,0.2,0.2,0.4,0.3c0.2,0.1,0.4,0.1,0.5,0.2l0.6,0.2c0.3,0,0.7,0,1,0
		c0.3,0,0.7,0,1-0.1l0.9-0.6C207.7,34.1,208,33.9,208.2,33.6L208.2,33.6z"/>
	<path class="st0" d="M225.7,37.2c-0.2,0.2-0.5,0.4-0.9,0.4c-0.3,0-0.6-0.1-0.8-0.3c-0.3-0.3-0.4-0.6-0.5-1c0-1,0-1.9,0-2.8
		s0-1.9,0-2.8c0-0.7,0-1.4,0-2c0-0.7,0-1.3-0.1-2c-0.1-0.3-0.3-0.5-0.5-0.6c-0.2-0.1-0.5-0.1-0.7-0.1c-0.7,0-1.4,0.2-2.1,0.5
		c-0.7,0.3-1.2,0.8-1.6,1.4c-0.2,0.4-0.4,0.6-0.5,0.9c-0.2,0.3-0.2,0.7-0.3,1v3.1c0,1,0,2.1,0,3.2c0,0.4-0.1,0.8-0.4,1.1
		c-0.5,0.4-1.2,0.4-1.6,0c-0.3-0.3-0.4-0.6-0.5-1v-2.9c0-0.9,0-1.8,0-2.7s0-1.8,0-2.8v-2.9c0.1-0.4,0.2-0.7,0.5-0.9
		c0.2-0.2,0.5-0.3,0.8-0.3c0.3,0,0.5,0.1,0.8,0.3c0.3,0.2,0.4,0.5,0.5,0.9v0.2c0.6-0.5,1.3-0.9,2-1.2c0.7-0.3,1.5-0.4,2.3-0.5
		c0.7,0,1.5,0.2,2.1,0.5c0.7,0.4,1.3,1,1.6,1.7c0.2,0.3,0.3,0.7,0.3,1c0.1,0.4,0.1,0.8,0.1,1.3c0,0.5,0,0.9,0,1.4s0,0.9,0,1.3v5.7
		C226.1,36.5,226,36.9,225.7,37.2z"/>
	<path class="st0" d="M114.7,63.1c-0.1-0.3-0.2-0.5-0.2-0.8c0-0.3,0.1-0.6,0.3-0.9c0.2-0.2,0.5-0.3,0.8-0.3c0.4,0,0.7,0.1,1,0.3
		c0.4,0.4,0.8,0.7,1.2,1c0.5,0.3,1,0.5,1.5,0.6c0.5,0.2,1.1,0.3,1.6,0.3c0.5,0.1,1.1,0.1,1.6,0.1c0.2-0.1,0.5-0.2,0.7-0.2
		c0.1,0,0.2-0.1,0.3-0.1c0.1,0,0.2-0.1,0.3-0.2c0.1-0.1,0.3-0.2,0.6-0.4c0.1-0.1,0.2-0.3,0.3-0.4l0.3-0.4l0.3-0.8v-0.4
		c0-0.1,0-0.3,0-0.5c0-0.1-0.1-0.3-0.1-0.4l-0.2-0.4l-0.4-0.4l-0.4-0.4c-0.2-0.1-0.4-0.2-0.5-0.3c-0.2-0.1-0.4-0.2-0.6-0.3
		c-0.8-0.3-1.5-0.5-2.3-0.6c-0.7-0.1-1.3-0.3-2-0.4c-0.6-0.2-1.2-0.4-1.8-0.8c-0.7-0.5-1.2-1.1-1.6-1.8c-0.1-0.1-0.1-0.2-0.2-0.4
		c0-0.1-0.1-0.3-0.1-0.4c0-0.2,0-0.3,0-0.5s0-0.3,0-0.5c0-0.3,0-0.7,0.1-1c0.1-0.3,0.2-0.6,0.3-0.8c0.2-0.3,0.3-0.6,0.6-0.8
		c0.2-0.3,0.5-0.6,0.8-0.9c0.3-0.4,0.8-0.7,1.2-0.9c0.5-0.2,0.9-0.4,1.4-0.6c0.5-0.1,1-0.2,1.5-0.3c0.5,0,1-0.1,1.5-0.1h0.5
		c0.1,0,0.3,0,0.4,0c0.5,0,0.9,0.2,1.3,0.3c0.4,0.2,0.9,0.3,1.3,0.5c0.4,0.3,0.7,0.7,0.7,1.2c0,0.3-0.1,0.6-0.4,0.8
		c-0.3,0.2-0.6,0.4-1,0.4h-0.3H125c-0.7-0.2-1.2-0.4-1.8-0.5c-0.5-0.1-1-0.2-1.5-0.2c-0.5,0-1,0.1-1.5,0.2c-0.6,0.2-1.2,0.5-1.8,0.8
		c-0.1,0.2-0.2,0.3-0.4,0.5l-0.4,0.4c-0.1,0.1-0.1,0.2-0.2,0.4s-0.1,0.2-0.1,0.4s0,0.2,0,0.4c0,0.1,0,0.2,0,0.3l0.2,0.3
		c0.1,0.1,0.1,0.2,0.2,0.3l1.3,0.8l1.7,0.4c0.5,0.1,1,0.2,1.5,0.4s1,0.3,1.5,0.5c0.5,0.2,1.1,0.5,1.6,0.7c0.3,0.2,0.5,0.4,0.8,0.6
		l0.6,0.7c0.3,0.4,0.6,0.8,0.7,1.3c0.2,0.5,0.2,1,0.2,1.5c0,0.7-0.1,1.5-0.4,2.2c-0.3,0.7-0.7,1.3-1.2,1.7c-0.2,0.2-0.4,0.3-0.6,0.5
		l-0.6,0.4c-0.4,0.3-0.9,0.5-1.5,0.6c-0.6,0.1-1.1,0.2-1.7,0.2c-0.7,0-1.3-0.1-2-0.2c-0.7-0.1-1.4-0.4-2-0.6c-0.6-0.3-1.2-0.6-1.8-1
		C115.6,63.9,115.1,63.5,114.7,63.1z"/>
	<path class="st0" d="M143,64.1L143,64.1c0.1,0.3,0.2,0.5,0.1,0.8c-0.1,0.2-0.2,0.4-0.4,0.6c-0.2,0.2-0.4,0.3-0.7,0.3
		c-0.3,0-0.6,0-0.9-0.2c-0.2-0.2-0.4-0.4-0.5-0.6c-0.2-0.2-0.3-0.4-0.4-0.7c-0.4,0.4-0.9,0.7-1.3,1c-0.4,0.3-0.9,0.4-1.4,0.5
		c-0.8,0-1.6,0.1-2.4,0c-0.8,0-1.6-0.3-2.3-0.8c-0.6-0.4-1-0.9-1.4-1.5c-0.3-0.6-0.5-1.2-0.6-1.9c-0.1-0.7-0.1-1.4,0-2.1
		c0.1-0.7,0.3-1.4,0.5-2c0.1-0.3,0.2-0.6,0.4-0.8c0.2-0.3,0.3-0.5,0.5-0.8c0.2-0.4,0.5-0.8,0.8-1.2c0.3-0.4,0.6-0.7,1-0.9l0.8-0.6
		c0.2-0.2,0.5-0.4,0.8-0.5c0.3-0.2,0.6-0.3,0.9-0.4c0.4-0.1,0.8-0.3,1.2-0.3c0.4-0.1,0.9-0.1,1.3-0.1c0.4,0,0.8,0.1,1.1,0.2
		c0.3,0,0.6,0,0.9,0.2c0.3,0.2,0.5,0.5,0.6,0.9c0,1.4,0,2.8,0,4.2c0,1.4,0.1,2.8,0.3,4.2c0,0.2,0.1,0.5,0.2,0.7
		c0.1,0.3,0.3,0.5,0.4,0.8s0.3,0.5,0.4,0.7C143,63.8,143,64,143,64.1z M139.1,62L139.1,62c0.1-0.1,0.1-0.1,0.2-0.1
		c-0.3-1.3-0.4-2.6-0.4-3.9c0-1.3,0-2.5,0-3.7c-0.2,0-0.4,0-0.6,0.1c-0.2,0-0.4,0.1-0.7,0.2l-0.6,0.2l-0.4,0.1
		c-0.6,0.3-1.1,0.7-1.6,1.1c-0.4,0.5-0.8,1-1.1,1.5c-0.3,0.6-0.5,1.2-0.6,1.8c-0.1,0.6-0.2,1.3-0.2,1.9c0,0.2,0.1,0.3,0.1,0.5
		c0.1,0.2,0.1,0.3,0.1,0.5c0.1,0.1,0.2,0.2,0.3,0.3c0.1,0.1,0.2,0.2,0.4,0.3c0.2,0.1,0.4,0.1,0.5,0.2l0.6,0.2c0.3,0,0.7,0,1,0
		c0.3,0,0.7,0,1-0.1l0.9-0.6C138.5,62.5,138.8,62.2,139.1,62z"/>
	<path class="st0" d="M156.5,65.6c-0.2,0.2-0.5,0.4-0.9,0.4c-0.3,0-0.6-0.1-0.8-0.3c-0.3-0.3-0.4-0.6-0.5-1c0-1,0-1.9,0-2.8
		s0-1.9,0-2.8c0-0.7,0-1.4,0-2c0-0.7,0-1.3-0.1-2c-0.1-0.3-0.3-0.5-0.5-0.6c-0.2-0.1-0.5-0.1-0.7-0.1c-0.7,0-1.4,0.2-2.1,0.5
		c-0.7,0.3-1.2,0.8-1.6,1.4c-0.2,0.4-0.4,0.6-0.5,0.9c-0.2,0.3-0.2,0.7-0.3,1v3.1c0,1,0,2.1,0,3.2c0,0.4-0.1,0.8-0.4,1.1
		c-0.2,0.2-0.5,0.3-0.9,0.4c-0.3,0-0.6-0.1-0.8-0.3c-0.3-0.3-0.4-0.6-0.5-1v-2.9c0-0.9,0-1.8,0-2.8s0-1.8,0-2.8v-2.9
		c0.1-0.4,0.2-0.7,0.5-0.9c0.2-0.2,0.5-0.3,0.8-0.3c0.3,0,0.5,0.1,0.8,0.3c0.3,0.2,0.4,0.5,0.5,0.9v0.2c0.6-0.5,1.3-0.9,2-1.2
		c0.7-0.3,1.5-0.4,2.3-0.5c0.7,0,1.5,0.2,2.1,0.5c0.7,0.4,1.3,1,1.6,1.7c0.2,0.3,0.3,0.7,0.3,1c0.1,0.4,0.1,0.8,0.1,1.3
		c0,0.5,0,0.9,0,1.4s0,0.9,0,1.3v5.7C156.9,65,156.7,65.3,156.5,65.6z"/>
	<path class="st0" d="M168.2,62.1c0.3-0.3,0.6-0.4,1-0.4c0.3,0,0.6,0.1,0.8,0.3c0.2,0.2,0.3,0.5,0.3,0.8c0,0.4-0.1,0.7-0.4,1
		c-0.7,0.7-1.5,1.3-2.4,1.6c-0.9,0.3-1.8,0.4-2.7,0.3c-0.9-0.1-1.8-0.5-2.5-1.1c-0.8-0.6-1.4-1.4-1.7-2.4c-0.2-0.6-0.4-1.2-0.5-1.8
		c-0.1-0.6-0.1-1.2-0.1-1.8c0.1-1,0.3-2,0.7-3c0.4-1,0.9-1.9,1.6-2.6c0.7-0.7,1.5-1.3,2.4-1.6c1-0.3,2.1-0.3,3.1,0
		c0.5,0.2,1,0.4,1.5,0.7c0.5,0.3,0.9,0.6,1.3,1c0.2,0.3,0.3,0.6,0.4,1c0,0.3-0.1,0.6-0.3,0.8c-0.2,0.2-0.4,0.3-0.7,0.4
		c-0.3,0.1-0.7,0-1-0.2c-0.5-0.6-1.2-1-2-1.2c-0.6-0.1-1.2-0.1-1.8,0.2c-0.6,0.3-1.1,0.7-1.5,1.2c-0.4,0.6-0.8,1.2-1,1.9
		c-0.2,0.7-0.3,1.4-0.3,2.2c0,0.7,0.1,1.4,0.4,2.1c0.2,0.5,0.6,1,1,1.3c0.4,0.3,0.9,0.5,1.4,0.5c0.5,0,1,0,1.5-0.2
		C167.3,62.8,167.8,62.5,168.2,62.1z"/>
	<path class="st0" d="M173.8,54.1c-0.2-0.2-0.3-0.5-0.3-0.8c0-0.7,0.6-1.3,1.4-1.3c0,0,0,0,0.1,0h1.7v-4.9c0.1-0.4,0.2-0.7,0.5-0.9
		c0.2-0.2,0.5-0.3,0.8-0.3c0.3,0,0.5,0.1,0.8,0.3c0.3,0.2,0.4,0.5,0.5,0.9v5h3c0.3,0.1,0.6,0.3,0.9,0.5c0.2,0.2,0.3,0.5,0.3,0.8
		c0,0.3-0.1,0.6-0.3,0.8c-0.3,0.3-0.6,0.4-0.9,0.5h-2.9c0,1.6,0,3.2,0,4.9s0,3.3,0,4.9c0.1,0.7-0.5,1.4-1.2,1.4c0,0,0,0-0.1,0
		c-0.3,0-0.6-0.1-0.8-0.3c-0.3-0.3-0.4-0.6-0.5-1c0-1.6,0-3.3,0-5s0-3.3,0-5h-1.8C174.4,54.5,174,54.4,173.8,54.1z"/>
	<path class="st0" d="M197.8,63.3c0.2,0.3,0.3,0.6,0.3,1c0,0.3-0.1,0.6-0.3,0.9c-0.2,0.2-0.5,0.3-0.8,0.3c-0.5,0-0.9-0.2-1.2-0.6
		c-0.3-0.4-0.6-0.9-0.8-1.4c-0.5,0.6-1.2,1.1-1.9,1.5c-0.7,0.4-1.4,0.6-2.2,0.6c-0.5,0-1.1-0.1-1.6-0.3c-0.5-0.2-1-0.5-1.4-0.8
		c-0.4-0.3-0.8-0.7-1.2-1.2c-0.3-0.4-0.6-0.9-0.8-1.4c-0.2-0.6-0.3-1.2-0.3-1.8c-0.1-0.6-0.1-1.3-0.1-2s0-1.7,0.1-2.5
		s0.1-1.5,0.1-2.1c0.1-0.3,0.2-0.7,0.5-0.9c0.2-0.2,0.5-0.3,0.8-0.3c0.3,0,0.5,0.1,0.8,0.3c0.3,0.2,0.4,0.5,0.5,0.9c0,1,0,1.9,0,2.8
		s0,1.9,0,2.9c0,1,0.2,2,0.7,2.9c0.4,0.7,1.2,1.1,2,1.1c0.3,0,0.6-0.1,0.9-0.2c0.3-0.1,0.6-0.3,0.9-0.5c0.3-0.2,0.5-0.4,0.7-0.7
		c0.2-0.3,0.4-0.5,0.6-0.8c0,0,0.1-0.1,0.1-0.1c0.1,0,0.1-0.1,0.2-0.1c-0.1-1-0.2-2.1-0.2-3.1c0-0.6,0-1.2,0-1.8
		c0-0.6,0.1-1.1,0.1-1.7c0.1-0.4,0.2-0.9,0.5-1.2c0.2-0.3,0.5-0.5,0.9-0.5c0.3,0,0.6,0.1,0.8,0.4c0.2,0.3,0.4,0.6,0.4,1
		c0,0.5,0,1-0.1,1.7c-0.1,0.7-0.1,1.4-0.1,2.1c0,0.6,0,1.1,0.1,1.7c0,0.6,0.1,1.1,0.2,1.6c0.1,0.5,0.2,1,0.4,1.4
		C197.4,62.6,197.6,63,197.8,63.3z"/>
	<path class="st0" d="M212.7,64.1L212.7,64.1c0.1,0.3,0.1,0.5,0.1,0.8c-0.1,0.2-0.2,0.4-0.4,0.6c-0.2,0.2-0.4,0.3-0.7,0.3
		c-0.3,0-0.6,0-0.9-0.2c-0.2-0.2-0.4-0.4-0.5-0.6c-0.2-0.2-0.3-0.4-0.4-0.7c-0.4,0.4-0.9,0.7-1.3,1c-0.4,0.3-0.9,0.4-1.4,0.5
		c-0.8,0-1.6,0.1-2.5,0c-0.8,0-1.6-0.3-2.3-0.8c-0.6-0.4-1-0.9-1.4-1.5c-0.3-0.6-0.5-1.2-0.6-1.9c-0.1-0.7-0.1-1.4,0-2.1
		c0.1-0.7,0.3-1.4,0.5-2c0.1-0.3,0.2-0.6,0.4-0.8c0.2-0.3,0.3-0.5,0.5-0.8c0.2-0.4,0.5-0.8,0.8-1.2c0.3-0.4,0.6-0.7,1-0.9l0.8-0.6
		c0.3-0.2,0.5-0.4,0.8-0.5c0.3-0.2,0.6-0.3,0.9-0.4c0.4-0.1,0.8-0.3,1.2-0.3c0.4-0.1,0.9-0.1,1.3-0.1c0.4,0,0.8,0.1,1.1,0.2
		c0.3,0,0.6,0,0.9,0.2c0.3,0.2,0.5,0.5,0.6,0.9c0,1.4,0,2.8,0,4.2c0,1.4,0.1,2.8,0.3,4.2c0,0.2,0.1,0.5,0.2,0.7
		c0.1,0.3,0.3,0.5,0.4,0.8s0.3,0.5,0.4,0.7C212.7,63.8,212.7,64,212.7,64.1z M208.8,62L208.8,62c0.1-0.1,0.2-0.1,0.2-0.1
		c-0.3-1.3-0.4-2.6-0.4-3.9c0-1.3,0-2.5,0-3.7c-0.2,0-0.4,0-0.6,0.1c-0.2,0-0.5,0.1-0.7,0.2l-0.6,0.2l-0.4,0.1
		c-0.6,0.3-1.1,0.7-1.6,1.1c-0.4,0.5-0.8,1-1.1,1.5c-0.3,0.6-0.5,1.2-0.6,1.8c-0.1,0.6-0.2,1.3-0.2,1.9c0,0.2,0.1,0.3,0.2,0.5
		c0.1,0.2,0.1,0.3,0.1,0.5c0.1,0.1,0.2,0.2,0.3,0.3l0.4,0.3c0.2,0.1,0.4,0.1,0.6,0.2l0.5,0.2c0.4,0,0.7,0,1,0c0.3,0,0.7,0,1-0.1
		l0.9-0.6C208.2,62.5,208.5,62.2,208.8,62z"/>
	<path class="st0" d="M215.7,54.7c-0.3-0.1-0.5-0.3-0.7-0.6c-0.1-0.2-0.2-0.4-0.2-0.7c0-0.3,0.1-0.6,0.3-0.8
		c0.2-0.2,0.6-0.4,0.9-0.4c0.4,0,0.7,0.1,1.1,0.3c0.4,0.2,0.7,0.4,1,0.7c0.6-0.5,1.3-1,2-1.3c0.6-0.3,1.4-0.5,2.1-0.5
		c0.3,0,0.6,0.1,0.9,0.2c0.4,0.1,0.8,0.3,1.2,0.5c0.4,0.2,0.7,0.5,1,0.8c0.3,0.3,0.4,0.7,0.4,1.1c0,0.3-0.1,0.6-0.3,0.9
		c-0.2,0.2-0.5,0.3-0.8,0.3c-0.2,0-0.4-0.1-0.6-0.2c-0.2-0.1-0.4-0.3-0.5-0.4c-0.2-0.2-0.4-0.3-0.6-0.4c-0.2-0.1-0.4-0.2-0.7-0.2
		c-0.3,0-0.7,0.1-1,0.3c-0.3,0.2-0.7,0.4-1,0.6c-0.3,0.2-0.7,0.5-1,0.8l-0.8,0.8v8.2c0,0.4-0.1,0.8-0.4,1.1
		c-0.2,0.2-0.5,0.4-0.9,0.4c-0.3,0-0.6-0.1-0.8-0.3c-0.3-0.3-0.4-0.6-0.5-1v-8.5c0,0,0-0.1,0-0.1c0,0,0-0.1,0-0.1c0,0,0-0.1,0-0.1
		c0,0,0-0.1,0-0.1v-0.9L215.7,54.7z"/>
	<path class="st0" d="M238.4,52.2c0.1-0.3,0.3-0.5,0.6-0.6c0.2-0.1,0.4-0.2,0.6-0.2c0.3,0,0.7,0.1,0.9,0.4c0.2,0.3,0.4,0.7,0.3,1.1
		c-0.4,1.7-1,3.3-1.6,4.9c-0.7,1.6-1.4,3.1-2.2,4.6s-1.6,3-2.5,4.5s-1.7,3-2.5,4.5c-0.1,0.2-0.3,0.4-0.6,0.5
		c-0.2,0.1-0.4,0.1-0.6,0.1c-0.3,0-0.6-0.1-0.8-0.3c-0.2-0.3-0.4-0.6-0.3-1v-0.2c0-0.1,0-0.2,0-0.2c0.7-1.3,1.4-2.5,2.1-3.7
		c0.7-1.2,1.4-2.4,2.1-3.7c-0.8-0.6-1.5-1.3-2.2-2c-0.7-0.7-1.2-1.4-1.8-2.2c-0.5-0.8-1-1.6-1.4-2.5c-0.4-0.9-0.7-1.9-1-2.9
		c0-0.4,0.1-0.9,0.3-1.2c0.2-0.3,0.5-0.4,0.9-0.4c0.3,0,0.5,0.1,0.8,0.3c0.3,0.2,0.4,0.5,0.5,0.9c0.2,0.8,0.5,1.6,0.8,2.4
		c0.3,0.7,0.7,1.4,1.1,2c0.4,0.6,0.9,1.2,1.4,1.8c0.5,0.6,1.1,1.1,1.8,1.6c0.7-1.3,1.3-2.7,1.9-4C237.6,55.1,238.1,53.7,238.4,52.2z
		"/>
</g>
<g>
	<path class="st0" d="M22.3,48.7c-3.8,0-8.6-2.7-11.9-6.6c-2.5-3-3.8-6.6-3.5-10c0.2-2.4,1.2-4.5,2.9-5.9c1.1-0.9,2.5-1.4,4.2-1.4
		c3.8,0,8.6,2.6,11.9,6.6c2.5,3,3.8,6.6,3.5,10c-0.2,2.4-1.2,4.5-2.9,5.9C25.4,48.3,24,48.7,22.3,48.7z"/>
	<path class="st0" d="M14.1,25.3L14.1,25.3c3.6,0,8.3,2.6,11.5,6.4c2.4,2.9,3.6,6.4,3.4,9.6c-0.2,2.3-1.2,4.2-2.8,5.5
		c-1,0.9-2.3,1.3-3.8,1.3c-3.6,0-8.3-2.6-11.5-6.4c-2.4-2.9-3.6-6.4-3.4-9.6c0.2-2.3,1.2-4.2,2.8-5.5C11.3,25.8,12.6,25.3,14.1,25.3
		 M14.1,24.3c-1.7,0-3.2,0.5-4.5,1.5c-4.4,3.6-4.2,11.1,0.5,16.6c3.3,3.9,8.2,6.8,12.3,6.8c1.7,0,3.2-0.5,4.5-1.5
		c4.4-3.6,4.2-11.1-0.5-16.6C23,27.2,18.2,24.3,14.1,24.3L14.1,24.3z"/>
</g>
<g>
	<path class="st0" d="M38.7,30.1c-4.5,0-8.9-3.6-10.9-8.7c-1.5-4-1.5-9,0.2-12.7c1-2.2,2.4-3.7,4.2-4.4c0.7-0.3,1.4-0.4,2.1-0.4
		c4.4,0,9.7,4.6,11.9,10.5c1.4,3.6,1.4,7.5,0,10.6c-1,2.3-2.6,3.9-4.7,4.6C40.6,29.9,39.6,30.1,38.7,30.1z"/>
	<path class="st0" d="M34.3,4.4c4.2,0,9.3,4.5,11.5,10.1c1.3,3.5,1.3,7.2,0,10.2c-1,2.1-2.5,3.6-4.5,4.4c-0.8,0.3-1.7,0.5-2.6,0.5
		c-4.2,0-8.5-3.5-10.5-8.4c-1.5-3.9-1.4-8.7,0.2-12.3c0.6-1.4,1.9-3.3,3.9-4.1C32.9,4.5,33.6,4.4,34.3,4.4 M34.3,3.4
		c-0.8,0-1.6,0.1-2.3,0.4c-5.4,2-7.3,10.9-4.7,17.7c2.1,5.5,6.8,9.1,11.4,9.1c1,0,2-0.2,3-0.5c5.4-2,7.6-9.1,5-15.8
		C44.5,8.4,39.1,3.4,34.3,3.4L34.3,3.4z"/>
</g>
<g>
	<path class="st0" d="M65.4,30.6c-1.7,0-3.3-0.5-4.6-1.3c-1.8-1.2-3.1-3.1-3.5-5.6c-0.7-3.3,0.2-7.1,2.4-10.3
		c3.2-4.7,7.7-7.8,11.5-7.8c1.3,0,2.4,0.3,3.4,1c1.8,1.2,3.1,3.4,3.7,6.3c0.8,3.9-0.1,8.3-2.2,11.4C73.4,28.2,69.3,30.6,65.4,30.6z"
		/>
	<g>
		<path class="st0" d="M71.1,6.1L71.1,6.1c1.2,0,2.2,0.3,3.1,0.9c1.7,1.1,2.9,3.2,3.5,5.9c0.7,3.8-0.1,8-2.1,11.1
			c-2.5,3.8-6.5,6.1-10.2,6.1c-1.6,0-3.1-0.4-4.3-1.3c-1.7-1.2-2.9-3-3.3-5.2c-0.6-3.2,0.2-6.8,2.3-9.9C63.1,9.1,67.6,6.1,71.1,6.1
			 M71.1,5.1c-4.2,0-8.8,3.5-11.9,8c-4,6-3.5,13.4,1.3,16.6c1.5,1,3.1,1.4,4.9,1.4c4,0,8.3-2.4,11.1-6.5c4-6,3.1-15.2-1.6-18.4
			C73.7,5.4,72.4,5.1,71.1,5.1L71.1,5.1z"/>
	</g>
</g>
<g>
	<path class="st0" d="M79.3,50.4c-2.6,0-4.6-1-5.7-2.9c-1.1-1.9-1.3-4.3-0.7-6.8c0.9-3.4,3.4-6.5,6.6-8.3c3.2-1.8,6.4-2.8,9.2-2.8
		c2,0,4.7,0.6,6.2,3.2c1.1,1.9,1.3,4.1,0.7,6.4c-0.9,3.2-3.3,6.2-6.7,8.1C85.5,49.3,82.1,50.4,79.3,50.4z"/>
	<path class="st0" d="M88.7,30L88.7,30c2.7,0,4.6,1,5.8,2.9c1,1.8,1.3,3.9,0.7,6.1c-0.8,3.1-3.2,6-6.4,7.8c-3.4,2-6.8,3-9.4,3
		c-2.5,0-4.2-0.9-5.3-2.7c-1-1.8-1.3-4.1-0.6-6.4c0.9-3.2,3.3-6.2,6.4-8C82.9,31,86.1,30,88.7,30 M88.7,29c-2.9,0-6.3,1.1-9.4,2.9
		c-6.2,3.6-9,10.9-6.1,15.8c1.3,2.3,3.5,3.2,6.1,3.2c3,0,6.6-1.3,9.9-3.2c6.2-3.6,9-10.4,6.1-15.3C94,30.1,91.6,29,88.7,29L88.7,29z
		"/>
</g>
<g>
	<path class="st0" d="M69.5,76c-2.9,0-6.5-1.6-10.3-3.4c-1.8-0.8-3.6-1.6-5.4-2.3c-1.1-0.4-2.4-0.7-3.6-0.7c-1.1,0-2.2,0.2-3.3,0.6
		c-2.3,0.8-4.3,1.8-6.3,2.8c-3.1,1.5-5.8,2.9-8.2,2.9c-0.3,0-0.5,0-0.8-0.1c-0.4-0.1-0.8-0.1-1.2-0.1c0,0-0.6,0-0.7,0
		c-4.8,0-6.9-2.2-7-7.5c0-0.3,0-0.7-0.1-1.2c-0.7-4.6,2.8-8.4,6.9-12.8c1.4-1.5,2.8-3,4.1-4.7c1-1.3,1.7-2.8,2-4.4
		c1.7-9.5,6-14.1,13.3-14.1c0.3,0,0.6,0,1,0c0.2,0,0.5,0,0.7,0c0.2,0,0.3,0,0.5,0c0.2,0,0.4,0,0.6,0c8,0,10.2,5.6,12.5,13.6
		c0.4,1.3,0.9,2.4,1.7,3.4c1.7,2.2,3.6,4.2,5.5,6.1c4.2,4.3,7.7,8,7.1,11.9c-0.1,0.6-0.2,1.1-0.2,1.6c-0.1,6.2-1.5,8.3-5.7,8.3
		c0,0-0.5,0-0.5,0c-0.5,0-1.1,0-1.8,0.1C70,76,69.8,76,69.5,76z M42.1,42.9c-2.8,0-5.1,1.4-6.1,3.9c-1.4,3.4,0,7.8,3.9,11.6
		l10.7,10.7l10.7-10.7c3.7-3.7,5-7.9,3.6-11.3c-1-2.5-3.4-4-6.2-4c-2.7,0-5.5,1.4-8.1,3.8C47.9,44.3,44.9,42.9,42.1,42.9z"/>
	<path class="st0" d="M48.9,30.6l0,1c0.3,0,0.6,0,1,0c0.2,0,0.5,0,0.7,0c0.2,0,0.3,0,0.5,0c0.2,0,0.4,0,0.6,0
		c7.4,0,9.7,5.2,11.8,12.6c-1.3-1.1-2.9-1.7-4.8-1.7c0,0,0,0,0,0c-2.7,0-5.5,1.3-8.1,3.6c-2.7-2.5-5.7-3.9-8.5-3.9
		c-2.6,0-4.8,1.2-6.1,3.2c0-0.1,0-0.2,0-0.2c1.6-9.2,5.8-13.7,12.8-13.7L48.9,30.6 M35.1,48.3c-0.5,3.3,1.1,7,4.5,10.4l10.4,10.4
		l0.1,0.1c-1.1,0-2.2,0.2-3.3,0.6c-2.3,0.8-4.4,1.8-6.4,2.8c-3.1,1.5-5.7,2.8-8,2.8c-0.3,0-0.5,0-0.7,0c-0.4-0.1-0.9-0.1-1.3-0.1
		c-0.1,0-0.2,0-0.2,0c-0.2,0-0.3,0-0.5,0c-3.8,0-6.4-1.2-6.5-7c0-0.4,0-0.8-0.1-1.2c-0.6-4.3,2.8-8.1,6.8-12.4
		c1.4-1.5,2.8-3,4.1-4.7C34.4,49.5,34.8,48.9,35.1,48.3 M66,49c1.6,2,3.4,3.8,5.1,5.5c4.1,4.2,7.6,7.8,6.9,11.5
		c-0.1,0.6-0.2,1.2-0.2,1.7c-0.1,6.6-1.8,7.8-5.2,7.8c-0.1,0-0.2,0-0.3,0c-0.1,0-0.2,0-0.3,0c-0.6,0-1.1,0-1.8,0.1
		c-0.2,0-0.5,0-0.8,0c-2.7,0-6.3-1.6-10.1-3.3c-1.8-0.8-3.6-1.6-5.4-2.3c-0.9-0.4-1.9-0.6-2.8-0.7l0.2-0.2l10.4-10.4
		C64.8,55.6,66.3,52.1,66,49 M48.9,30.6c-8.9,0-12.4,6.8-13.8,14.5c-0.3,1.5-0.9,3-1.9,4.2C28,55.9,21.1,60.9,22.1,67.2
		c0.1,0.4,0.1,0.7,0.1,1.1c0.2,6.3,3,8,7.5,8c0.2,0,0.3,0,0.5,0c0.1,0,0.1,0,0.2,0c0.4,0,0.8,0,1.2,0.1c0.3,0,0.6,0.1,0.9,0.1
		c4.1,0,8.9-3.7,14.7-5.7c1-0.4,2.1-0.5,3.1-0.5c1.2,0,2.3,0.2,3.4,0.6c5.8,2.2,11.5,5.7,15.8,5.7c0.3,0,0.6,0,0.9-0.1
		c0.6-0.1,1.1-0.1,1.7-0.1c0.1,0,0.2,0,0.2,0c0.1,0,0.2,0,0.3,0c4.7,0,6.1-2.6,6.2-8.7c0-0.5,0.1-1,0.2-1.5c1-5.9-7-11.2-12.7-18.4
		c-0.7-0.9-1.3-2-1.6-3.2c-2.2-7.6-4.5-13.9-13-13.9c-0.2,0-0.4,0-0.7,0c-0.2,0-0.3,0-0.5,0c-0.2,0-0.5,0-0.7,0
		C49.6,30.6,49.3,30.6,48.9,30.6L48.9,30.6z M50.6,68.4L40.3,58C33,50.7,36,43.4,42.1,43.4c2.5,0,5.5,1.2,8.5,4.3
		c2.8-2.8,5.7-4,8.1-4c6.1,0,9.3,7.3,2.2,14.4L50.6,68.4L50.6,68.4z"/>
</g>
<line class="st1" x1="-18.5" y1="-3.7" x2="-18.9" y2="-3.5"/>
</svg>
