<?xml version="1.0" encoding="UTF-8"?><svg id="Layer_1" xmlns="http://www.w3.org/2000/svg" viewBox="0 0 179.82 142.43"><defs><style>.cls-1{fill:#ffaead;}.cls-2{fill:#fff;}</style></defs><g><path class="cls-2" d="M28.21,88.37c-7.39,0-15.11-3.95-20.64-10.58-9.01-10.79-9.46-25.32-.99-32.39,3-2.5,6.82-3.82,11.06-3.82,7.39,0,15.11,3.95,20.64,10.58,4.38,5.25,6.89,11.52,7.06,17.65,.17,6.09-1.98,11.33-6.07,14.74-3,2.5-6.82,3.82-11.06,3.82Z"/><path class="cls-1" d="M17.63,41.07v1h0c7.25,0,14.82,3.89,20.25,10.4,4.31,5.16,6.77,11.32,6.94,17.35,.17,5.94-1.92,11.03-5.89,14.34-2.9,2.43-6.62,3.71-10.74,3.71-7.25,0-14.82-3.89-20.26-10.4-4.31-5.16-6.77-11.32-6.94-17.35-.17-5.94,1.92-11.03,5.89-14.34,2.9-2.42,6.62-3.71,10.74-3.71v-1m0,0c-4.21,0-8.19,1.27-11.38,3.94-8.69,7.26-8.28,22.07,.93,33.1,5.82,6.98,13.77,10.76,21.02,10.76,4.21,0,8.19-1.27,11.38-3.94,8.69-7.26,8.28-22.07-.93-33.1-5.82-6.98-13.77-10.76-21.02-10.76h0Z"/></g><g><path class="cls-2" d="M123.95,141.93c-5.75,0-12.92-3.27-20.52-6.74-5.54-2.53-11.26-5.14-16.88-6.7l-.12-.03-.12,.03c-7.03,1.48-13.46,4.69-19.14,7.52-6.22,3.1-11.59,5.78-16.47,5.78-.96,0-1.89-.11-2.77-.32l-.07-.02h-.08c-.89,.06-1.74,.09-2.52,.09-4.9,0-8.23-1.06-10.5-3.35-2.59-2.61-3.85-6.93-3.85-13.21v-.11c-2.13-9.8,5.16-17.79,13.61-27.03,3.89-4.26,7.91-8.66,11.31-13.58l.07-.1,.02-.12c2.68-21.7,11.89-32.7,27.38-32.7,1,0,2.03,.04,3.08,.13,.89-.05,1.7-.08,2.47-.08,17.44,0,21.43,14.15,26.04,30.54l.07,.26,.05,.07c3.9,5.54,8.58,10.44,13.11,15.18,8.71,9.11,16.24,16.98,13.81,25.39l-.02,.07v.07c.05,8.52-1.05,13.29-3.69,15.95-1.81,1.82-4.4,2.67-8.13,2.67-.81,0-1.7-.04-2.63-.13h-.09l-.09,.02c-1.01,.29-2.13,.44-3.33,.44h0Z"/><path class="cls-1" d="M83.29,51.83c.98,0,2.01,.04,3.04,.13h.15c.8-.05,1.6-.08,2.36-.08,17.06,0,20.81,13.32,25.56,30.18l.05,.18,.05,.16,.1,.14c3.92,5.58,8.62,10.49,13.16,15.24,8.61,9,16.04,16.77,13.69,24.91l-.04,.14v.14c.05,8.27-1.04,13.08-3.55,15.6-1.71,1.72-4.18,2.53-7.78,2.53-.8,0-1.67-.04-2.59-.12l-.19-.02-.18,.05c-.96,.28-2.04,.42-3.19,.42-5.64,0-12.77-3.25-20.31-6.69-5.55-2.53-11.3-5.16-16.95-6.72l-.23-.07-.24,.05c-7.09,1.49-13.55,4.72-19.26,7.56-6.16,3.08-11.49,5.73-16.25,5.73-.93,0-1.8-.1-2.65-.31l-.15-.04h-.15c-.88,.06-1.72,.09-2.49,.09-7.19,0-13.85-1.95-13.85-16.06v-.11l-.02-.1c-2.06-9.55,5.15-17.45,13.5-26.59,3.9-4.27,7.93-8.68,11.35-13.63l.14-.2,.03-.24c2.68-21.71,11.48-32.26,26.88-32.26m0-1c-19.13,0-25.77,16.1-27.87,33.14-10.76,15.59-28.16,26.34-25,41,0,13.43,5.7,17.06,14.85,17.06,.82,0,1.68-.03,2.55-.08,.94,.23,1.9,.34,2.88,.34,9.65,0,21.26-10.28,35.71-13.31,13.33,3.7,27.46,13.46,37.53,13.46,1.22,0,2.38-.14,3.47-.46,.95,.08,1.84,.13,2.68,.13,9.62,0,12.41-5.66,12.32-19.13,3.77-13.09-15.47-24.58-27-41-4.7-16.69-8.69-31.08-26.57-31.08-.78,0-1.59,.03-2.43,.08-1.08-.09-2.12-.14-3.13-.14h0Z"/></g><g><path class="cls-1" d="M63.03,50.25c-9,0-18.06-7.31-22.04-17.77-2.43-6.39-2.75-13.13-.92-18.99,1.83-5.82,5.57-10.06,10.54-11.95,1.82-.69,3.75-1.04,5.72-1.04,9,0,18.06,7.31,22.04,17.77,5,13.14,.68,27.02-9.63,30.94-1.82,.69-3.75,1.04-5.72,1.04Z"/><path class="cls-1" d="M56.34,1h0c8.79,0,17.66,7.17,21.57,17.44,4.9,12.88,.71,26.48-9.34,30.3-1.76,.67-3.63,1.01-5.55,1.01-8.79,0-17.66-7.17-21.57-17.44-4.9-12.88-.71-26.48,9.34-30.3,1.76-.67,3.63-1.01,5.55-1.01M56.34,0c-2,0-3.99,.35-5.9,1.08-10.58,4.03-15.02,18.17-9.92,31.59,4.18,10.99,13.47,18.09,22.5,18.09,2,0,3.99-.35,5.9-1.08,10.58-4.03,15.02-18.17,9.92-31.59C74.67,7.1,65.38,0,56.34,0h0Z"/></g><g><path class="cls-2" d="M115.82,51.31c-3.42,0-6.65-.95-9.34-2.75-9.16-6.14-10.24-20.64-2.41-32.32,5.29-7.89,13.52-12.79,21.47-12.79,3.42,0,6.65,.95,9.34,2.75,9.16,6.14,10.24,20.64,2.41,32.32-5.29,7.89-13.52,12.79-21.48,12.79Z"/><path class="cls-1" d="M125.55,2.95v1h0c3.37,0,6.42,.9,9.06,2.67,8.93,5.99,9.95,20.17,2.28,31.62-5.2,7.76-13.27,12.57-21.06,12.57-3.37,0-6.42-.9-9.06-2.67-8.93-5.99-9.95-20.17-2.28-31.62,5.2-7.75,13.27-12.57,21.06-12.57v-1m0,0c-7.83,0-16.33,4.73-21.89,13.02-8,11.93-6.85,26.71,2.55,33.01,2.87,1.92,6.18,2.84,9.62,2.84,7.83,0,16.33-4.73,21.89-13.02,8-11.93,6.85-26.71-2.55-33.01-2.87-1.92-6.18-2.84-9.62-2.84h0Z"/></g><g><path class="cls-1" d="M150.45,91.55c-7.45,0-13.78-3.25-16.92-8.69-2.63-4.56-2.86-10.17-.63-15.77,2.24-5.65,6.7-10.62,12.55-13.99,4.68-2.7,9.8-4.13,14.81-4.13,7.45,0,13.78,3.25,16.92,8.69,5.46,9.46,.12,22.81-11.92,29.76-4.68,2.7-9.8,4.13-14.81,4.13Z"/><path class="cls-1" d="M160.26,48.48v1h0c7.27,0,13.43,3.15,16.48,8.44,2.56,4.43,2.77,9.88,.6,15.34-2.2,5.54-6.58,10.42-12.33,13.74-4.6,2.66-9.64,4.06-14.56,4.06-7.27,0-13.44-3.15-16.49-8.44-5.33-9.22-.06-22.27,11.73-29.08,4.6-2.66,9.64-4.06,14.56-4.06v-1m0,0c-4.9,0-10.16,1.36-15.06,4.19-12.29,7.1-17.71,20.73-12.1,30.44,3.37,5.84,9.96,8.94,17.35,8.94,4.9,0,10.16-1.36,15.06-4.19,12.29-7.1,17.71-20.73,12.1-30.44-3.37-5.84-9.96-8.94-17.35-8.94h0Z"/></g></svg>